<svg xmlns="http://www.w3.org/2000/svg" viewBox="0 0 1000 1000"><defs><style>.a{fill:#2e3192;}.b{fill:#fff;}</style></defs><title>logo_museme</title><circle class="a" cx="500" cy="500" r="500"/><path class="b" d="M576.9,381.6c1.12-2,2.4-3.84,3.34-5.89,24.6-53.63,67.08-78.92,122.09-83.21C747.71,289,786.74,306.56,820.23,337c39.91,36.25,62.46,82.69,63.33,138.42.83,53.19-18,99.85-49.34,141.18-30.73,40.49-70.92,67.86-115.8,87.18-44.15,19-89.33,35.43-134.23,52.47-42.27,16-84.5,32-124.43,54-37.36,20.55-69.44,47.54-95.31,82.54-3.78,5.12-8,9.9-12,14.8-.3.37-.86.51-2.48,1.41-.71-7.84-1.8-15.16-2-22.5-1.29-60.75-18.6-116.93-43.86-170.93-29.42-62.88-59.69-125.35-87.71-188.9A385.74,385.74,0,0,1,183.3,362c1.51-74.34,26.77-138.91,78.06-191,28.3-28.73,63.87-43.35,102-51.55,31.67-6.82,63.64-10.76,94.76,1.68C525.2,148,566.69,197.75,578.74,272.78c5.2,32.36,3.71,64.67-2.13,96.83-.69,3.8-.78,7.71-1.14,11.58ZM506.23,720.32c6-1.91,10.43-3.16,14.76-4.76,14.86-5.49,29.73-11,44.5-16.7,56.7-22.05,108.07-52.5,147.88-101.68,18.52-22.87,34.54-47.21,45.43-75,12.41-31.69,20.82-64.21,15.38-98.81-4.89-31.1-19.66-55.25-49.87-64.12-29.23-8.58-55.71-1.92-76.85,22.43-10.51,12.11-9.63,16.19,5.33,20.6,13.21,3.9,25.05,9.53,34,21.16,12.34,16.11,15.66,40.18,7.06,56.37s-29.93,26.45-49.33,23.52c-33.21-5-55.3-35.57-49.79-71.62,12.51-81.91,88.88-121.41,156.89-90.17,55.62,25.55,84.92,73.3,86.29,137.67C839.29,545.5,815,600.7,767.13,643.52,740.45,667.4,708.56,683,675.9,696.25,627.43,716,577,727.28,525.5,733.55c-12,1.46-22.75,2.68-26,17.91-.81,3.83-4.66,6.95-7.13,10.38-1.23,1.71-2.49,3.41-3.74,5.11a31.33,31.33,0,0,0,11.23-2.05c38.66-12.78,77.26-25.74,116-38.32,39.72-12.91,79.81-24.68,116.79-45.3,62.74-35,103.78-86.82,115.46-161.89,11.38-73.09-16.3-140.89-74.42-179.33-64.45-42.63-155.85-23.15-185.12,65.78-9.31,28.29-10.38,65.69,23.08,93.52,1.51,1.26,2.69,3,5.22,5.82-20.59-3.16-33.51-15.46-45-30.34,1.31,22-1.72,42.41-11.43,61.2-18.51,35.83-42.36,66.57-77.66,85.78-6.18,3.36-7.41,7.19-4.77,14.26C488.19,663.41,503.15,689,506.23,720.32ZM375,172.41c2.74,1.22,3.78,1.83,4.89,2.16,27.42,8,44.7,27,53.6,54.74,10.67,33.27,6,65.72-8.7,95.95-11.89,24.46-27.2,47.09-40.79,70.67-1.71,3-3.86,7.42-2.91,10,6.9,18.86,14.55,37.43,22.26,56.84,4.45-2.92,8-5,11.35-7.48,15.64-11.4,32.53-20.07,51.07-24.67,32.42-8,64.71-13.86,92.63,14.08a17.3,17.3,0,0,0,0-3.69c-8.87-34.28-9.14-69.5-10.81-104.6-1.41-29.63-5.76-58.54-19.75-85.13-13.78-26.19-34.81-44.67-58-60.8C441.44,170.73,410.08,166,375,172.41Zm-33.89,12.08a21.67,21.67,0,0,0-4,.9c-25,11.4-46,27.93-60.76,52.22-27.35,44.89-35.74,94.47-32.56,146.79,3.38,55.69,20.21,107.41,42.85,157.37.41.91,1.5,1.49,2.88,2.81-1.64-44.87,9.95-84.94,31-122.29,8.78-15.61,17.9-31,27.17-46.32,2.79-4.61,3.15-8.64,1.1-13.62-5.93-14.4-11.79-28.85-17.21-43.47C314.41,272.81,312.59,227.8,341.08,184.49Zm29.57,231.29c-38.47,40.33-58.55,87-51,142.18,2.73,19.91,7.86,38.77,22.39,53.05,28.14,27.65,80.67,31.41,114.42,8.12L406,498.26c-5.69,9.72-10.89,17.06-14.56,25.16-14.23,31.33-11.67,65,25.66,74.29,1.84.46,3.27,2.69,6.7,5.66-5.65.55-9.05,1.7-12.09,1-23-5-40.82-17.83-48.57-41.53-9.4-28.74-1.5-54.22,17.44-76.39,3.44-4,7.33-7.64,10.57-11.82,1.22-1.57,2.22-4.67,1.56-6.3C385.65,451,378.27,433.82,370.65,415.78ZM471.12,614.86c12.94-11,24.76-20.07,35.54-30.36,22.81-21.79,37.22-49,43.4-80.57,5.74-29.3-6-47.17-32.36-49.1-34.9-2.56-66.15,8.84-94.48,29.87-4.13,3.07-3,6.16-1.48,9.81,8.6,21.43,17,42.94,25.76,64.31C454.78,576.66,462.45,594.35,471.12,614.86ZM463,631.64C408.85,658.73,360.25,652.82,317.81,608l55.49,130.2c7.91-26.88,19.13-38.27,40.21-38.54A43.51,43.51,0,0,1,434.09,705c10.28,5.61,14,16.61,15.87,29.17l46.63-10.9C490.84,690.57,474.38,663.09,463,631.64ZM359,354.56c2.39-3,4.3-5.12,5.93-7.47a172.58,172.58,0,0,0,28.58-67.59,120.66,120.66,0,0,0,1.19-36.87c-2.19-16.7-18.41-23.82-30.7-14.63-3.82,2.86-6.94,7.24-9.39,11.55-12.42,21.87-12.59,45.76-9.47,70C347.14,324.75,350,339.83,359,354.56ZM491.24,740.65,449,738.08c-1.42,16.17-15.65,22.7-27.9,31.37C444.91,783.44,487.87,764.8,491.24,740.65Zm-48.52,50,0-2.44c-22.77,5.07-42.66.29-58.46-18.53l-1.36,1.71,9.64,50.4Z"/><path class="b" d="M887.72,643.94c-.25,13-5.2,23-14.88,30.2-14.08,10.47-31.71,4.87-38.2-12-5.38-14-1.91-30.69,8.51-41,7.47-7.39,19.4-10.13,28-5.6C882.3,621.47,887.38,631.59,887.72,643.94Z"/><path class="b" d="M915.29,473.18c18.33.25,30.17,14.84,29.46,32-.5,12-5.42,21.83-15,28.66-11.79,8.36-25,6.58-33.59-5.25-8.3-11.4-9.8-24.37-3.8-37.37C897.64,479.63,906.79,473.28,915.29,473.18Z"/><path class="a" d="M506.23,720.32c-3.08-31.36-18-56.91-28.23-84.26-2.63-7.07-1.41-10.89,4.77-14.26,35.3-19.21,59.16-50,77.66-85.78,9.7-18.79,12.74-39.21,11.43-61.2,11.47,14.88,24.39,27.18,45,30.34-2.53-2.85-3.71-4.56-5.22-5.82-33.45-27.83-32.39-65.23-23.08-93.52C617.81,316.9,709.21,297.42,773.67,340c58.12,38.44,85.8,106.24,74.42,179.33-11.68,75.07-52.72,126.89-115.46,161.89-37,20.62-77.07,32.4-116.79,45.3-38.72,12.58-77.32,25.54-116,38.32a31.33,31.33,0,0,1-11.23,2.05c1.25-1.7,2.51-3.39,3.74-5.11,2.47-3.43,6.31-6.56,7.13-10.38,3.24-15.23,14-16.45,26-17.91C577,727.28,627.43,716,675.9,696.25c32.65-13.29,64.55-28.86,91.23-52.73,47.86-42.82,72.15-98,70.74-164.35-1.37-64.37-30.67-112.12-86.29-137.67-68-31.24-144.38,8.27-156.89,90.17-5.51,36.06,16.58,66.61,49.79,71.62,19.4,2.93,40.67-7.22,49.33-23.52s5.28-40.26-7.06-56.37c-8.91-11.63-20.75-17.26-34-21.16-15-4.42-15.84-8.5-5.33-20.6,21.14-24.35,47.61-31,76.85-22.43,30.21,8.86,45,33,49.87,64.12,5.44,34.6-3,67.13-15.38,98.81-10.89,27.82-26.91,52.16-45.43,75-39.81,49.17-91.18,79.62-147.88,101.68-14.77,5.74-29.64,11.21-44.5,16.7C516.66,717.17,512.21,718.41,506.23,720.32Z"/><path class="a" d="M375,172.41c35.11-6.45,66.47-1.68,94.86,18.1,23.14,16.12,44.17,34.6,58,60.8,14,26.59,18.34,55.5,19.75,85.13,1.67,35.1,1.94,70.33,10.81,104.6a17.3,17.3,0,0,1,0,3.69c-27.93-27.95-60.21-22.13-92.63-14.08-18.54,4.6-35.44,13.27-51.07,24.67-3.34,2.44-6.9,4.56-11.35,7.48-7.71-19.42-15.36-38-22.26-56.84-1-2.6,1.2-7.05,2.91-10,13.59-23.58,28.9-46.21,40.79-70.67,14.69-30.23,19.36-62.68,8.7-95.95-8.9-27.77-26.19-46.74-53.6-54.74C378.74,174.24,377.71,173.63,375,172.41Z"/><path class="a" d="M341.08,184.49c-28.49,43.31-26.66,88.33-9.6,134.39,5.42,14.62,11.27,29.07,17.21,43.47,2.05,5,1.69,9-1.1,13.62-9.27,15.3-18.39,30.71-27.17,46.32-21,37.35-32.59,77.42-31,122.29-1.38-1.32-2.46-1.9-2.88-2.81-22.64-50-39.47-101.67-42.85-157.37-3.18-52.32,5.21-101.91,32.56-146.79,14.8-24.29,35.8-40.82,60.76-52.22A21.67,21.67,0,0,1,341.08,184.49Z"/><path class="a" d="M370.65,415.78c7.62,18,15,35.25,22,52.6.66,1.63-.34,4.73-1.56,6.3-3.24,4.18-7.13,7.8-10.57,11.82-18.94,22.17-26.84,47.65-17.44,76.39,7.75,23.7,25.53,36.57,48.57,41.53,3,.66,6.44-.5,12.09-1-3.42-3-4.86-5.2-6.7-5.66-37.33-9.33-39.89-43-25.66-74.29,3.68-8.1,8.87-15.44,14.56-25.16l50.51,120.85c-33.75,23.29-86.29,19.53-114.42-8.12-14.53-14.28-19.65-33.14-22.39-53.05C312.1,502.75,332.18,456.11,370.65,415.78Z"/><path class="a" d="M471.12,614.86c-8.67-20.51-16.33-38.2-23.64-56-8.74-21.37-17.16-42.88-25.76-64.31-1.47-3.65-2.65-6.75,1.48-9.81,28.34-21,59.59-32.44,94.48-29.87,26.39,1.94,38.11,19.81,32.36,49.1-6.18,31.55-20.6,58.78-43.4,80.57C495.88,594.79,484.06,603.88,471.12,614.86Z"/><path class="a" d="M463,631.64c11.38,31.45,27.83,58.94,33.58,91.59L450,734.13c-1.89-12.56-5.59-23.56-15.87-29.17a43.51,43.51,0,0,0-20.57-5.34c-21.07.28-32.3,11.66-40.21,38.54L317.81,608C360.25,652.82,408.85,658.73,463,631.64Z"/><path class="a" d="M359,354.56c-9-14.74-11.89-29.81-13.86-45.06-3.12-24.19-3-48.08,9.47-70,2.45-4.31,5.56-8.69,9.39-11.55,12.29-9.19,28.5-2.07,30.7,14.63a120.66,120.66,0,0,1-1.19,36.87A172.58,172.58,0,0,1,365,347.1C363.33,349.44,361.41,351.57,359,354.56Z"/><path class="a" d="M491.24,740.65c-3.37,24.15-46.33,42.78-70.12,28.8,12.25-8.67,26.48-15.2,27.9-31.37Z"/><path class="a" d="M442.72,790.68l-50.15,31.14-9.64-50.4,1.36-1.71c15.8,18.82,35.69,23.6,58.46,18.53Z"/></svg>